<?xml version="1.0" ?>
<svg width="60" height="60" version="1.1" viewBox="0 0 50 50" x="0px" xml:space="preserve" xmlns="http://www.w3.org/2000/svg" xmlns:xlink="http://www.w3.org/1999/xlink" y="0px">
	<circle cx="25" cy="25" fill="#ee6224" r="25"/>
    <g transform="scale(0.7 0.7) translate(12.5 10)" fill="#fff">
        <path d="M45.096,11.781H32.298c0.642-0.254,1.321-0.536,2.05-0.853c1.529-0.665,3.563-1.771,3.578-3.698  c0.021-2.486-3.201-3.951-7.661-5.978l-0.144-0.065c-0.684-0.311-1.36-0.468-2.012-0.468c-2.282,0-3.712,1.757-4.609,3.924  c-0.897-2.167-2.327-3.924-4.609-3.924c-0.652,0-1.329,0.157-2.012,0.468l-0.144,0.065c-4.46,2.027-7.682,3.491-7.662,5.978  c0.016,1.927,2.05,3.034,3.578,3.698c0.729,0.317,1.409,0.599,2.05,0.853H1.904c-0.829,0-1.5,0.671-1.5,1.5v8.771H22v-8.771  c0-0.829,0.671-1.5,1.5-1.5c0.828,0,1.5,0.671,1.5,1.5v8.771h21.596v-8.771C46.596,12.453,45.924,11.781,45.096,11.781z"/>
        <path d="M25,46.281h16.336c0.828,0,1.5-0.672,1.5-1.5V25.053H25V46.281z"/>
        <path d="M4.163,44.781c0,0.828,0.671,1.5,1.5,1.5H22V25.053H4.163V44.781z"/>
    </g>
</svg>

