<?xml version="1.0" ?>
<svg height="60" version="1.1" viewBox="0 0 100 125" width="60" xmlns="http://www.w3.org/2000/svg" xmlns:xlink="http://www.w3.org/1999/xlink">
	<circle cx="50" cy="62.5" fill="#ee6224" r="62.5"/>
    <g transform="scale(1.1,1.1) translate(-5,5)" fill="#fff" stroke="#fff" stroke-width="1.5">
        <path d="M50.357,17.073c0.544,0,0.99-0.437,1-0.983l0.086-4.995c0.009-0.552-0.431-1.007-0.983-1.017  c-0.576-0.019-1.007,0.431-1.017,0.983l-0.086,4.995c-0.009,0.552,0.431,1.007,0.983,1.017  C50.346,17.073,50.352,17.073,50.357,17.073z"/>
        <path d="M53.719,19.713c0.25,0,0.5-0.093,0.695-0.281l3.593-3.471c0.397-0.384,0.408-1.017,0.024-1.414  c-0.384-0.397-1.016-0.408-1.414-0.024l-3.593,3.471c-0.397,0.384-0.408,1.017-0.024,1.414  C53.196,19.611,53.457,19.713,53.719,19.713z"/>
        <path d="M47.082,19.713c0.262,0,0.523-0.102,0.719-0.305c0.384-0.397,0.373-1.03-0.024-1.414l-3.593-3.471  c-0.397-0.384-1.03-0.374-1.414,0.024c-0.384,0.397-0.373,1.03,0.024,1.414l3.593,3.471C46.581,19.62,46.831,19.713,47.082,19.713z"/>
        <path d="M51.962,25.776c0.121,3.917,2.015,13.514,2.955,17.346c3.04,12.405,9.642,21.292,15.52,21.292  c0.118,0,0.236-0.014,0.353-0.021l5.444,22.212l-6.148,1.507c-0.537,0.131-0.865,0.673-0.733,1.209  c0.112,0.457,0.521,0.762,0.97,0.762c0.079,0,0.159-0.009,0.239-0.029L84.8,86.565c0.537-0.131,0.865-0.673,0.733-1.209  c-0.132-0.537-0.679-0.863-1.209-0.733l-6.148,1.507l-5.442-22.208c2.596-1.149,4.451-4.258,5.269-8.907  c0.865-4.917,0.5-11.061-1.028-17.297c-0.939-3.833-3.697-13.218-5.4-16.747c-0.205-0.425-0.676-0.648-1.139-0.537l-17.711,4.341  C52.265,24.887,51.947,25.305,51.962,25.776z M76.032,54.668c-0.758,4.306-2.479,7.092-4.723,7.642  c-4.925,1.202-11.542-7.797-14.45-19.664c-0.429-1.752-1.062-4.723-1.627-7.78l17.69-4.173c0.893,2.919,1.687,5.777,2.109,7.5  C76.495,44.167,76.851,50.018,76.032,54.668z M70.105,22.574c0.667,1.55,1.456,3.821,2.218,6.207l-17.443,4.115  c-0.415-2.413-0.753-4.728-0.876-6.375L70.105,22.574z"/>
        <path d="M70.474,35.954c-0.537,0.131-0.865,0.673-0.733,1.209c2.126,8.675,1.771,15.999,0.863,18.217  c-0.209,0.511,0.035,1.095,0.546,1.304c0.124,0.051,0.252,0.075,0.378,0.075c0.394,0,0.767-0.234,0.926-0.622  c1.038-2.534,1.485-10.244-0.771-19.451C71.551,36.15,71.004,35.823,70.474,35.954z"/>
        <path d="M16.726,84.623c-0.532-0.131-1.078,0.196-1.209,0.733c-0.131,0.536,0.197,1.078,0.733,1.209l14.239,3.489  c0.08,0.02,0.16,0.029,0.239,0.029c0.45,0,0.858-0.306,0.97-0.762c0.131-0.536-0.197-1.078-0.733-1.209l-6.148-1.507l5.444-22.212  c0.118,0.007,0.235,0.021,0.353,0.021c5.878,0,12.48-8.887,15.521-21.292c0.939-3.835,2.834-13.433,2.955-17.346  c0.015-0.472-0.303-0.89-0.762-1.002l-17.712-4.341c-0.458-0.112-0.934,0.112-1.138,0.537c-1.704,3.532-4.461,12.916-5.399,16.748  c-1.528,6.236-1.894,12.379-1.029,17.297c0.818,4.649,2.673,7.758,5.269,8.907L22.875,86.13L16.726,84.623z M30.945,22.574  l16.101,3.946c-0.123,1.647-0.461,3.962-0.876,6.375L28.726,28.78C29.488,26.395,30.278,24.124,30.945,22.574z M25.019,54.668  c-0.818-4.651-0.463-10.501,1.001-16.475c0.422-1.722,1.215-4.58,2.108-7.5l17.69,4.173c-0.565,3.056-1.197,6.028-1.626,7.78  c-2.908,11.866-9.524,20.869-14.451,19.663C27.498,61.76,25.776,58.975,25.019,54.668z"/>
        <path d="M30.447,55.38c-0.909-2.219-1.263-9.543,0.863-18.217c0.131-0.536-0.197-1.078-0.733-1.209  c-0.532-0.132-1.078,0.196-1.209,0.733c-2.256,9.206-1.809,16.916-0.771,19.451c0.158,0.387,0.532,0.622,0.926,0.622  c0.126,0,0.254-0.024,0.378-0.075C30.412,56.476,30.656,55.892,30.447,55.38z"/>
    </g>
</svg>

