<?xml version="1.0" ?>
<svg data-name="Layer 1" width="60" height="60" viewBox="0 0 128 160" x="0px" xmlns="http://www.w3.org/2000/svg" y="0px">
	<circle cx="64" cy="80" fill="#ee6224" r="80"/>
	<path fill="#fff" transform='translate(0 10)' d="M48.8,33.6A4,4,0,0,0,48,36V66.84L17.35,94a4,4,0,0,0,5.31,6L28,95.25V124a4,4,0,0,0,4,4H96a4,4,0,0,0,4-4V95.25l5.35,4.74a4,4,0,1,0,5.31-6L80,66.84V36a4,4,0,0,0-.8-2.4L68,18.67V12h2a4,4,0,0,0,0-8H68a4,4,0,0,0-8,0H58a4,4,0,0,0,0,8h2v6.67ZM92,120H68V96a4,4,0,0,0-8,0v24H36V88.16L64,63.35,92,88.16ZM72,59.75,66.65,55a4,4,0,0,0-5.31,0L56,59.75V37.33l8-10.67,8,10.67Z"/>
</svg>
