<?xml version="1.0" ?>
<svg width="60" height="60" overflow="visible" version="1.1" viewBox="0 0 75 93.75" x="0px" xmlns="http://www.w3.org/2000/svg" xmlns:xlink="http://www.w3.org/1999/xlink" y="0px">
	<circle cx="37.5" cy="46.875" fill="#ee6224" r="46.0"/>
	<g fill="#fff" transform="scale(1.3 -1.3)">
		<g transform="translate(-8 -73)">
			<g>
				<path d="M 19.815,23.624 L 19.815,27.108 L 16.708,27.108 L 16.708,38.388 C 16.708,40.859 18.47,42.92 20.802,43.386 L 24.716,52.42 C 25.539,53.96 27.955,54.928 29.748,54.781 L 45.495,54.781 C 47.287,54.928 49.703,53.96 50.525,52.42 L 54.466,43.324 C 56.664,42.759 58.292,40.762 58.292,38.388 L 58.292,27.108 L 55.258,27.108 L 55.258,23.624 C 55.258,21.737 53.725,20.205 51.837,20.205 L 51.752,20.205 C 49.862,20.205 48.329,21.737 48.329,23.624 L 48.329,27.108 L 26.743,27.108 L 26.743,23.624 C 26.743,21.737 25.211,20.205 23.322,20.205 L 23.235,20.205 C 21.347,20.205 19.815,21.737 19.815,23.624 Z M 26.052,37.66 L 26.052,37.873 C 26.052,39.438 24.782,40.705 23.221,40.705 L 23.133,40.705 C 21.57,40.705 20.302,39.438 20.302,37.873 L 20.302,37.66 C 20.302,36.098 21.57,34.828 23.133,34.828 L 23.221,34.828 C 24.782,34.828 26.052,36.098 26.052,37.66 Z M 54.565,37.66 L 54.565,37.873 C 54.565,39.438 53.299,40.705 51.735,40.705 L 51.648,40.705 C 50.086,40.705 48.815,39.438 48.815,37.873 L 48.815,37.66 C 48.815,36.098 50.086,34.828 51.648,34.828 L 51.735,34.828 C 53.299,34.828 54.565,36.098 54.565,37.66 Z M 51.257,43.487 L 51.222,43.581 L 48.367,50.16 C 47.846,51.371 46.064,51.947 44.787,51.844 L 30.456,51.844 C 29.18,51.947 27.396,51.371 26.872,50.16 L 24.02,43.581 L 23.985,43.487 L 51.257,43.487 Z"/>
			</g>
		</g>
	</g>
</svg>

